# xmcd
#
# Track frame offsets: 
#        150
#        18050
#        39270
#        52275
#        75793
#        96634
#        120267
#        145257
#        168571
#        183750
#        206212
#        224156
#        241392
#        261124
#        277514
#
# Disc length: 3964 seconds
#
# Revision: 0
# Processed by: cddbd v1.5.2PL0 Copyright (c) Steve Scherf et al.
# Submitted via: ExactAudioCopy v0.99pb3
#
DISCID=cd0f7a0f
DTITLE=Tri Tip Trio - 3 Of A Kind
DYEAR=2007
DGENRE=Blues
TTITLE0=Don't Worry
TTITLE1=Mardi Gras In New Orleans
TTITLE2=Josephine n'est pas Ma Femme
TTITLE3=My Eyes Are Tied Of Crying
TTITLE4=Morning Train
TTITLE5=Cabbage Alley
TTITLE6=Got My Mojo Working
TTITLE7=Can't Stop Me From Loving You
TTITLE8=Shake It, Don't Break It
TTITLE9=Ya Ya
TTITLE10=Iko Iko
TTITLE11=Oh What A Price
TTITLE12=Miss You
TTITLE13=Jambalaya
TTITLE14=I'm Coming Home
EXTD=
EXTT0=
EXTT1=
EXTT2=
EXTT3=
EXTT4=
EXTT5=
EXTT6=
EXTT7=
EXTT8=
EXTT9=
EXTT10=
EXTT11=
EXTT12=
EXTT13=
EXTT14=
PLAYORDER=
